REM DIRINDEX 1
REM DIRNAME cjc069
TITLE ""
FILE "Disk2Track14.mp3" MP3
  TRACK 01 AUDIO
    TITLE "1:cjc069_0516"
    INDEX 01 00:00:00
  TRACK 02 AUDIO
    TITLE "1:cjc069_0517"
    INDEX 01 00:16:36
  TRACK 03 AUDIO
    TITLE "1:cjc069_0518"
    INDEX 01 00:29:15
  TRACK 04 AUDIO
    TITLE "1:cjc069_0519"
    INDEX 01 00:48:06
  TRACK 05 AUDIO
    TITLE "1:cjc069_0520"
    INDEX 01 01:00:10
  TRACK 06 AUDIO
    TITLE "0:"
    INDEX 01 01:12:09
